<svg width="109" height="14" viewBox="0 0 109 14" fill="none" xmlns="http://www.w3.org/2000/svg">
<g clip-path="url(#clip0_3039_23495)">
<path fill-rule="evenodd" clip-rule="evenodd" d="M104.973 8.825C108.13 7.9 109 6.9 109 4.1C109 2.025 108.08 0 104.203 0C100.549 0 99.5543 1.65 99.4051 4.1C99.4051 4.4 99.604 4.575 99.8774 4.575H101.642C101.99 4.575 102.115 4.425 102.164 4.1C102.313 2.75 103.134 2.4 104.178 2.4C105.321 2.4 106.241 2.775 106.241 4.1C106.241 5.875 105.57 6.025 102.736 6.9C99.7531 7.775 98.908 9.125 98.908 11.35V13.275C98.908 13.575 99.0571 13.75 99.3802 13.75H108.031C108.329 13.75 108.503 13.6 108.503 13.275V11.825C108.503 11.475 108.304 11.35 108.031 11.35H101.667C101.667 10.05 102.338 9.65 104.973 8.825Z" fill="black"/>
<path fill-rule="evenodd" clip-rule="evenodd" d="M95.5521 11.3503V0.575325C95.5521 0.225326 95.3035 0.100326 94.9803 0.200326L90.7546 1.80033C90.506 1.90033 90.3817 2.10033 90.3817 2.32533V4.00033C90.3817 4.35033 90.6303 4.47533 90.9534 4.37533L92.8675 3.65033V11.3503H90.3817C90.0337 11.3503 89.9094 11.5503 89.9094 11.8253V13.2753C89.9094 13.5753 90.0586 13.7503 90.3817 13.7503H97.0932C97.3915 13.7503 97.5655 13.6003 97.5655 13.2753V11.8253C97.5655 11.4753 97.3667 11.3503 97.0932 11.3503H95.5521Z" fill="black"/>
<path fill-rule="evenodd" clip-rule="evenodd" d="M84.938 8.825C88.0949 7.9 88.9649 6.9 88.9649 4.1C88.9649 2.025 88.0452 0 84.1674 0C80.5134 0 79.5191 1.65 79.37 4.1C79.37 4.4 79.5688 4.575 79.8423 4.575H81.6071C81.9303 4.575 82.0794 4.425 82.1291 4.1C82.2783 2.75 83.0986 2.4 84.1426 2.4C85.286 2.4 86.2058 2.775 86.2058 4.1C86.2058 5.875 85.5346 6.025 82.7009 6.9C79.718 7.775 78.8728 9.125 78.8728 11.35V13.275C78.8728 13.575 79.022 13.75 79.3451 13.75H87.9955C88.2938 13.75 88.4678 13.6 88.4678 13.275V11.825C88.4678 11.475 88.2689 11.35 87.9955 11.35H81.6071C81.632 10.05 82.3031 9.65 84.938 8.825Z" fill="black"/>
<path fill-rule="evenodd" clip-rule="evenodd" d="M57.6444 0.724609V6.12461L57.8184 8.82461L53.1452 0.574609C52.9961 0.324609 52.8469 0.224609 52.5735 0.224609H50.7589C50.4109 0.224609 50.2866 0.424609 50.2866 0.699609V13.2496C50.2866 13.5496 50.4358 13.7246 50.7589 13.7246H52.4989C52.7972 13.7246 52.9712 13.5246 52.9712 13.2496V7.87461L52.7972 5.17461L57.4704 13.4246C57.6196 13.6746 57.7687 13.7496 58.0422 13.7496H59.8567C60.155 13.7496 60.329 13.5996 60.329 13.2746V0.724609C60.329 0.374609 60.1302 0.249609 59.8567 0.249609H58.1167C57.7936 0.249609 57.6444 0.374609 57.6444 0.724609Z" fill="black"/>
<path fill-rule="evenodd" clip-rule="evenodd" d="M47.6766 13.275V0.725C47.6766 0.375 47.4777 0.25 47.2043 0.25H45.4642C45.1162 0.25 44.9919 0.45 44.9919 0.725V13.275C44.9919 13.575 45.1411 13.75 45.4642 13.75H47.2043C47.4777 13.75 47.6766 13.575 47.6766 13.275Z" fill="black"/>
<path fill-rule="evenodd" clip-rule="evenodd" d="M26.4483 3.4L28.3126 7.575C28.412 7.875 28.6109 7.95 28.8346 7.95H30.5995C30.9723 7.95 31.1215 7.7 30.9723 7.375L27.9397 0.625C27.8403 0.325 27.6414 0.25 27.4177 0.25H25.4043C25.1557 0.25 24.9817 0.35 24.8822 0.625L21.8496 7.375C21.7005 7.725 21.8496 7.95 22.2225 7.95H23.9874C24.2359 7.95 24.41 7.85 24.5094 7.575L26.4483 3.4Z" fill="#00A7E1"/>
<path fill-rule="evenodd" clip-rule="evenodd" d="M15.6851 6.225H13.8208V2.65H15.6851C17.3257 2.65 17.9969 3.125 17.9969 4.425C17.9969 5.75 17.3257 6.225 15.6851 6.225ZM18.4443 8.225C20.3583 7.5 20.7312 5.95 20.7312 4.425C20.7312 2.375 20.0601 0.25 15.6851 0.25H11.6085C11.2605 0.25 11.1362 0.45 11.1362 0.725V13.275C11.1362 13.575 11.2854 13.75 11.6085 13.75H13.3237C13.622 13.75 13.796 13.55 13.796 13.275V8.65H15.8094L17.798 13.375C17.8975 13.675 18.0963 13.75 18.32 13.75H20.0849C20.4578 13.75 20.6069 13.5 20.4578 13.175L18.4443 8.225Z" fill="black"/>
<path fill-rule="evenodd" clip-rule="evenodd" d="M9.12269 0.25H0.472292C0.149145 0.25 0 0.375 0 0.725V2.175C0 2.475 0.19886 2.65 0.472292 2.65H3.45519V13.275C3.45519 13.575 3.60433 13.75 3.92748 13.75H5.6675C5.96579 13.75 6.13979 13.55 6.13979 13.275V2.65H9.12269C9.42098 2.65 9.59498 2.45 9.59498 2.175V0.725C9.59498 0.375 9.39612 0.25 9.12269 0.25Z" fill="black"/>
<path fill-rule="evenodd" clip-rule="evenodd" d="M72.2854 6.525H68.2088C67.8856 6.525 67.7365 6.675 67.7365 7V8.45C67.7365 8.75 67.8856 8.925 68.2088 8.925H70.0234V9.4C70.0234 11.175 69.3522 11.575 67.7116 11.575C66.071 11.575 65.3999 11.2 65.3999 9.4V4.575C65.3999 2.8 66.071 2.4 67.7116 2.4C69.2031 2.4 69.8742 2.75 70.0234 4.1C70.0234 4.45 70.1725 4.575 70.4957 4.575H72.2606C72.5588 4.575 72.7328 4.375 72.7328 4.1C72.6831 1.65 71.8131 0 67.7365 0C63.3616 0 62.6904 1.875 62.6904 4.45V9.575C62.6904 12.125 63.3616 14.025 67.7365 14.025C72.1114 14.025 72.7826 12.15 72.7826 9.575V7C72.7577 6.65 72.5837 6.525 72.2854 6.525Z" fill="black"/>
<path fill-rule="evenodd" clip-rule="evenodd" d="M39.8465 9.175C39.8465 10.95 39.1754 11.35 37.5348 11.35H35.6704V2.65H37.5348C39.1754 2.65 39.8465 3.025 39.8465 4.825V9.175ZM37.5348 0.25H33.4581C33.1101 0.25 32.9858 0.45 32.9858 0.725V13.275C32.9858 13.575 33.135 13.75 33.4581 13.75H37.5348C41.9097 13.75 42.5808 11.875 42.5808 9.3V4.675C42.5808 2.125 41.9097 0.25 37.5348 0.25Z" fill="black"/>
</g>
<defs>
<clipPath id="clip0_3039_23495">
<rect width="109" height="14" fill="white"/>
</clipPath>
</defs>
</svg>
