<svg width="40" height="40" viewBox="0 0 40 40" fill="none" xmlns="http://www.w3.org/2000/svg">
<g clip-path="url(#clip0_3039_23910)">
<path d="M39.3871 24.8461C36.7196 35.5715 25.8553 42.0735 15.1576 39.406C4.46004 36.7385 -2.06967 25.8742 0.597782 15.1766C3.26524 4.45121 14.1296 -2.05072 24.8272 0.616739C35.5526 3.25641 42.0545 14.1207 39.3871 24.8461Z" fill="#F7931A"/>
<path d="M28.8005 17.1491C29.1895 14.4816 27.1611 13.0645 24.4103 12.092L25.2995 8.47984L23.1044 7.92412L22.243 11.4252C21.6595 11.2862 21.076 11.1473 20.4925 11.0084L21.3816 7.47955L19.1865 6.92383L18.2974 10.536C17.825 10.4249 17.3527 10.3137 16.9081 10.2026L13.8794 9.45235L13.2959 11.7864C13.2959 11.7864 14.9353 12.1476 14.8797 12.1754C15.7689 12.3977 15.9356 12.9812 15.9078 13.4535L14.8797 17.5659C14.9353 17.5937 15.0186 17.5937 15.102 17.6492C15.0186 17.6214 14.9631 17.6214 14.8797 17.5937L13.4348 23.3454C13.3237 23.6232 13.0458 24.0122 12.4345 23.8733C12.4623 23.9011 10.8507 23.4843 10.8507 23.4843L9.76709 25.985L12.629 26.7075C13.157 26.8464 13.6849 26.9853 14.1851 27.1243L13.2681 30.7642L15.4632 31.3199L16.3524 27.7078C16.9637 27.8745 17.5194 28.0134 18.1029 28.1523L17.2137 31.7367L19.4088 32.2925L20.3258 28.6525C24.0769 29.3471 26.8833 29.0693 28.0781 25.6794C29.0228 22.9564 28.0225 21.3726 26.0497 20.3445C27.439 20.0388 28.5226 19.0941 28.8005 17.1491ZM23.799 24.1789C23.1322 26.902 18.5197 25.4293 17.047 25.0681L18.2418 20.2333C19.7423 20.5945 24.4937 21.3448 23.799 24.1789ZM24.4659 17.1213C23.8546 19.5942 20.0201 18.3439 18.7975 18.0382L19.8812 13.648C21.1316 13.9537 25.1328 14.5372 24.4659 17.1213Z" fill="white"/>
</g>
<defs>
<clipPath id="clip0_3039_23910">
<rect width="40" height="40" fill="white"/>
</clipPath>
</defs>
</svg>
